<?xml version="1.0" encoding="UTF-8"?>
<svg version="1.1" xmlns="http://www.w3.org/2000/svg" width="500" height="500">
<path d="M0 0 C165 0 330 0 500 0 C500 165 500 330 500 500 C335 500 170 500 0 500 C0 335 0 170 0 0 Z " fill="#FEFEFE" transform="translate(0,0)"/>
<path d="M0 0 C1.14114258 0.00829834 2.28228516 0.01659668 3.45800781 0.02514648 C11.98730603 0.19599998 19.21256541 1.05645968 27.125 4.4375 C28.29933594 4.93507813 29.47367187 5.43265625 30.68359375 5.9453125 C38.83016751 9.71606247 45.49779733 14.41670803 52.125 20.4375 C52.76953125 20.98921875 53.4140625 21.5409375 54.078125 22.109375 C66.43065144 33.34906122 74.15873573 52.03500681 75.2668457 68.55175781 C75.74025715 79.51572733 74.99155289 89.04217748 71.125 99.4375 C70.76277344 100.47390625 70.40054688 101.5103125 70.02734375 102.578125 C67.17631784 110.11643079 63.17669104 116.19177289 58.125 122.4375 C57.45726562 123.2934375 56.78953125 124.149375 56.1015625 125.03125 C47.39625193 135.51645678 35.83616547 141.88997097 23.125 146.4375 C22.1865625 146.78941406 21.248125 147.14132813 20.28125 147.50390625 C4.28924368 152.23421505 -14.58665558 150.71256674 -29.875 144.4375 C-30.865 143.4475 -30.865 143.4475 -31.875 142.4375 C-33.3290625 141.880625 -33.3290625 141.880625 -34.8125 141.3125 C-51.58262823 134.38038019 -62.96733688 118.56869017 -69.875 102.4375 C-77.04256798 82.53266154 -77.14211971 62.67225005 -68.19067383 43.30761719 C-60.10349272 26.71994077 -49.11526783 15.39334904 -32.8125 7 C-31.89488892 6.52288574 -31.89488892 6.52288574 -30.95874023 6.03613281 C-21.06749329 1.23458172 -10.89226737 -0.10277251 0 0 Z " fill="#4BA525" transform="translate(150.875,66.5625)"/>
<path d="M0 0 C1.37482811 1.16351677 2.72933139 2.35147355 4.0625 3.5625 C4.79597656 4.20445312 5.52945313 4.84640625 6.28515625 5.5078125 C20.63988899 18.85303573 28.69785933 37.2003254 29.46972656 56.7421875 C29.74466631 76.11213608 23.17637193 95.12881655 10.0625 109.5625 C9.40894531 110.30757813 8.75539062 111.05265625 8.08203125 111.8203125 C-4.42587501 125.26232469 -23.17738355 133.94470371 -41.52734375 134.84765625 C-62.14857084 135.42655575 -80.86647389 129.61130831 -96.3359375 115.54296875 C-111.72555513 100.98374193 -120.56220673 82.76032825 -121.21850586 61.45361328 C-121.45900696 44.62599354 -117.05317759 29.12181251 -106.9375 15.5625 C-106.34066406 14.73878906 -105.74382812 13.91507812 -105.12890625 13.06640625 C-93.7817912 -1.93370358 -77.30495802 -11.17710688 -59.046875 -15.05078125 C-37.65566306 -17.71124605 -17.38060079 -12.97510129 0 0 Z " fill="#010101" transform="translate(196.9375,265.4375)"/>
<path d="M0 0 C1.70361694 -0.01522705 1.70361694 -0.01522705 3.44165039 -0.03076172 C22.66706101 0.16673581 40.2194057 8.08554424 54.25 21.1640625 C67.97507381 35.42833564 76.09039907 53.46028504 75.8125 73.3125 C75.80234863 74.36679199 75.79219727 75.42108398 75.78173828 76.50732422 C75.35126506 98.1344321 66.59087824 116.29723246 51.015625 131.2734375 C36.94875478 143.08108311 20.2084316 150.06729098 1.75 149.875 C0.70271729 149.86597656 -0.34456543 149.85695312 -1.42358398 149.84765625 C-20.94544535 149.41573675 -38.58138901 142.26919454 -52.5625 128.4375 C-68.52144631 110.57476186 -74.99077855 90.50868645 -73.73388672 66.83349609 C-72.45288704 48.92504765 -63.22704305 31.97788086 -50.5625 19.4375 C-43.20763807 13.14223682 -35.45828386 8.23842583 -26.5625 4.4375 C-25.67304688 4.02371094 -24.78359375 3.60992187 -23.8671875 3.18359375 C-16.02890526 0.11876132 -8.33762237 0.05309508 0 0 Z " fill="#010101" transform="translate(338.5625,66.5625)"/>
<path d="M0 0 C13.7403595 11.94237857 24.81920163 28.89522539 26.37597656 47.42285156 C27.60019501 70.72919905 22.9495822 90.89982766 7.1484375 108.71484375 C4.35436375 111.70385287 1.57934139 114.46701017 -1.8515625 116.71484375 C-2.5115625 116.71484375 -3.1715625 116.71484375 -3.8515625 116.71484375 C-3.8515625 117.37484375 -3.8515625 118.03484375 -3.8515625 118.71484375 C-20.16621545 130.38496487 -40.10791788 135.05604822 -59.91650391 132.44238281 C-74.84706806 129.89070567 -88.71905668 122.9419332 -99.8515625 112.71484375 C-100.51800781 112.10511719 -101.18445313 111.49539063 -101.87109375 110.8671875 C-105.44495086 107.44380858 -108.29290651 103.9792704 -110.8515625 99.71484375 C-111.23957031 99.0703125 -111.62757813 98.42578125 -112.02734375 97.76171875 C-123.06406003 78.76353221 -126.03226929 57.80283478 -121.01953125 36.33984375 C-117.42913616 25.19641017 -111.74520676 15.36718184 -103.8515625 6.71484375 C-103.33464844 6.10640625 -102.81773437 5.49796875 -102.28515625 4.87109375 C-75.73481096 -24.40748251 -29.48638605 -23.62950115 0 0 Z " fill="#4BA525" transform="translate(387.8515625,267.28515625)"/>
<path d="M0 0 C0.33 0 0.66 0 1 0 C0.5255332 5.50381491 -0.42258482 9.05995424 -3 14 C-3.94151035 18.46046037 -4.18478971 22.81701577 -4.31640625 27.3671875 C-4.33718735 28.04677521 -4.35796844 28.72636292 -4.37937927 29.42654419 C-4.4442363 31.57593666 -4.50345941 33.7254407 -4.5625 35.875 C-4.60574612 37.3411569 -4.64936225 38.80730294 -4.69335938 40.2734375 C-4.79985104 43.84884275 -4.90129409 47.42437037 -5 51 C-3.68 51.33 -2.36 51.66 -1 52 C-0.66048381 53.56116819 -0.32867456 55.12401338 0 56.6875 C0.185625 57.55761719 0.37125 58.42773438 0.5625 59.32421875 C0.98972047 61.93712964 1.07616201 64.35813038 1 67 C-1.42217311 64.04494881 -2.8351455 61.27776431 -4.125 57.6875 C-4.45757812 56.78386719 -4.79015625 55.88023437 -5.1328125 54.94921875 C-10.19294617 37.74020558 -8.06228305 15.84655633 0 0 Z " fill="#559F34" transform="translate(272,291)"/>
<path d="M0 0 C0.66 0.33 1.32 0.66 2 1 C1.67386719 1.62003906 1.34773438 2.24007813 1.01171875 2.87890625 C-7.57474633 20.27979567 -7.16523886 39.134727 -5 58 C-5.66 58 -6.32 58 -7 58 C-8.66500099 50.96163003 -9.35417497 44.28868802 -9.3125 37.0625 C-9.30976074 36.09538086 -9.30702148 35.12826172 -9.30419922 34.13183594 C-9.21753778 28.22889732 -8.72710701 22.93842121 -6.78515625 17.3203125 C-5.92093658 14.76634988 -5.49278936 12.28426579 -5.0625 9.625 C-4.29582015 5.5098295 -3.01887593 3.01887593 0 0 Z " fill="#E6FBDF" transform="translate(272,288)"/>
<path d="M0 0 C-0.60328125 0.19335938 -1.2065625 0.38671875 -1.828125 0.5859375 C-3.02695312 0.97652344 -3.02695312 0.97652344 -4.25 1.375 C-5.03890625 1.63023437 -5.8278125 1.88546875 -6.640625 2.1484375 C-8.98892763 2.93593685 -8.98892763 2.93593685 -11.03125 4.0625 C-14.25051415 5.59548293 -17.47136181 5.64713618 -21 6 C-21 6.66 -21 7.32 -21 8 C-21.969375 8.28875 -22.93875 8.5775 -23.9375 8.875 C-27.10664203 9.64214682 -27.10664203 9.64214682 -28 12 C-29.155 12.309375 -30.31 12.61875 -31.5 12.9375 C-32.655 13.288125 -33.81 13.63875 -35 14 C-35.33 14.99 -35.66 15.98 -36 17 C-35.67 17.33 -35.34 17.66 -35 18 C-35.33 18.66 -35.66 19.32 -36 20 C-37.98 19.67 -39.96 19.34 -42 19 C-33.03993591 9.1439295 -13.92121747 -4.23823732 0 0 Z " fill="#61A443" transform="translate(330,252)"/>
<path d="M0 0 C-2.8762444 1.52738496 -5.69519468 2.62485383 -8.8125 3.5625 C-9.62332031 3.81128906 -10.43414062 4.06007813 -11.26953125 4.31640625 C-17.51265601 5.87942032 -23.54818955 6.13367484 -29.9375 6.0625 C-30.71673828 6.05798828 -31.49597656 6.05347656 -32.29882812 6.04882812 C-34.19925268 6.03716908 -36.09963706 6.01923877 -38 6 C-38 5.67 -38 5.34 -38 5 C-33.38 5 -28.76 5 -24 5 C-24 4.34 -24 3.68 -24 3 C-16.89262311 -1.26442614 -7.95675046 -0.10768534 0 0 Z " fill="#59A035" transform="translate(368,394)"/>
<path d="M0 0 C0.33 0 0.66 0 1 0 C0.37330929 7.26961226 0.37330929 7.26961226 -1.4375 10.8125 C-6.45961368 21.05761191 -5.58408322 33.82497286 -6 45 C-6.33 45 -6.66 45 -7 45 C-7.44652641 29.15174726 -7.36156922 14.46929123 0 0 Z " fill="#5C9B48" transform="translate(272,291)"/>
<path d="M0 0 C8.89182732 3.23769911 16.11170669 9.66969693 23 16 C22.34 16.33 21.68 16.66 21 17 C17.70216285 15.90072095 17.16628004 15.21616406 15.125 12.5625 C12.12552342 8.93194543 9.62733609 7.30909836 4.875 6.75 C3 6 3 6 1.25 2.9375 C0.8375 1.968125 0.425 0.99875 0 0 Z " fill="#67A349" transform="translate(371,257)"/>
<path d="M0 0 C4.09914431 0.65586309 7.66362997 2.59134511 11 5 C12.125 7 12.125 7 13 9 C15.64701725 11.70820271 15.64701725 11.70820271 19 13 C19 14.65 19 16.3 19 18 C18.29101562 17.28070313 17.58203125 16.56140625 16.8515625 15.8203125 C14.10889863 13.07764863 11.25703208 10.47121071 8.375 7.875 C2.59832943 2.66808324 2.59832943 2.66808324 0 0 Z " fill="#E6FADA" transform="translate(381,262)"/>
<path d="M0 0 C0.33 0.99 0.66 1.98 1 3 C-1.6184387 7.8179272 -4.80672859 10.64538287 -9 14 C-9.33 14.66 -9.66 15.32 -10 16 C-10.99 16.33 -11.98 16.66 -13 17 C-14.66710346 18.49985609 -14.66710346 18.49985609 -16 20 C-16.99 19.67 -17.98 19.34 -19 19 C-18.38253906 18.55011719 -17.76507813 18.10023438 -17.12890625 17.63671875 C-10.27284241 12.42944956 -5.20282733 6.83656539 0 0 Z " fill="#E3F9DE" transform="translate(212,184)"/>
<path d="M0 0 C1.32 0.99 2.64 1.98 4 3 C2.35 4.65 0.7 6.3 -1 8 C-1.66 7.34 -2.32 6.68 -3 6 C-3.66 6 -4.32 6 -5 6 C-5 6.66 -5 7.32 -5 8 C-6.65 8.33 -8.3 8.66 -10 9 C-6.54644809 3.20296643 -6.54644809 3.20296643 -3.8125 2.1875 C-2.9153125 2.0946875 -2.9153125 2.0946875 -2 2 C-1.67 1.67 -1.34 1.34 -1 1 C-0.67 0.67 -0.34 0.34 0 0 Z " fill="#4BA62D" transform="translate(395,368)"/>
<path d="M0 0 C3 1 3 1 3.9140625 2.63671875 C4.14867187 3.31347656 4.38328125 3.99023438 4.625 4.6875 C4.86476563 5.35136719 5.10453125 6.01523437 5.3515625 6.69921875 C7.1092871 12.93596446 7.12208062 18.94945947 7.0625 25.375 C7.05798828 26.30183594 7.05347656 27.22867187 7.04882812 28.18359375 C7.03711574 30.45579709 7.02071372 32.72786388 7 35 C6.67 35 6.34 35 6 35 C5.98582031 33.89785156 5.97164063 32.79570312 5.95703125 31.66015625 C5.65594591 20.40381234 3.64799089 10.63436458 0 0 Z " fill="#E4FBDE" transform="translate(408,295)"/>
<path d="M0 0 C0.66 0.33 1.32 0.66 2 1 C1.67386719 1.62003906 1.34773438 2.24007813 1.01171875 2.87890625 C-2.89292882 10.7918646 -4.56478171 18.35368496 -6 27 C-6.33 27 -6.66 27 -7 27 C-7.49066303 17.35029374 -6.65442466 7.42435809 0 0 Z " fill="#E1F8D6" transform="translate(272,288)"/>
<path d="M0 0 C3.08367051 1.45762113 6.16687672 2.91622178 9.25 4.375 C10.12269531 4.7875 10.99539063 5.2 11.89453125 5.625 C12.73886719 6.02460938 13.58320313 6.42421875 14.453125 6.8359375 C15.22817383 7.20251465 16.00322266 7.5690918 16.80175781 7.94677734 C18.87881015 8.94193547 20.9400027 9.97000135 23 11 C17.555 10.505 17.555 10.505 12 10 C12 9.34 12 8.68 12 8 C11.38511719 7.81824219 10.77023437 7.63648438 10.13671875 7.44921875 C9.32847656 7.19785156 8.52023437 6.94648438 7.6875 6.6875 C6.88699219 6.44386719 6.08648437 6.20023437 5.26171875 5.94921875 C2.87242107 4.94645651 1.60410493 4.01940718 0 2 C0 1.34 0 0.68 0 0 Z " fill="#E7FCDE" transform="translate(297,387)"/>
<path d="M0 0 C0.33 0 0.66 0 1 0 C1.66 3.3 2.32 6.6 3 10 C1.35 10 -0.3 10 -2 10 C-2.33 11.32 -2.66 12.64 -3 14 C-3.66 14 -4.32 14 -5 14 C-5 14.66 -5 15.32 -5 16 C-5.66 15.67 -6.32 15.34 -7 15 C-6.36771484 13.75283203 -6.36771484 13.75283203 -5.72265625 12.48046875 C-5.17480469 11.39378906 -4.62695312 10.30710938 -4.0625 9.1875 C-3.51722656 8.10855469 -2.97195312 7.02960938 -2.41015625 5.91796875 C-0.9414793 3.03788473 -0.9414793 3.03788473 0 0 Z " fill="#EDF9EA" transform="translate(221,166)"/>
<path d="M0 0 C4.95 0 9.9 0 15 0 C15 0.33 15 0.66 15 1 C5.2648233 3.10084738 -4.10386916 3.21105492 -14 3 C-14 2.67 -14 2.34 -14 2 C-9.38 2 -4.76 2 0 2 C0 1.34 0 0.68 0 0 Z " fill="#70AE55" transform="translate(344,397)"/>
<path d="M0 0 C3.92247359 3.69833224 7.1189547 7.42422217 10 12 C9.67 12.99 9.34 13.98 9 15 C8.67 14.01 8.34 13.02 8 12 C7.01 12 6.02 12 5 12 C5 10.35 5 8.7 5 7 C3.02 6.34 1.04 5.68 -1 5 C-0.67 3.35 -0.34 1.7 0 0 Z " fill="#5EA443" transform="translate(394,274)"/>
<path d="M0 0 C0.66 0.33 1.32 0.66 2 1 C1.04832179 3.62758953 0.08902879 6.25194493 -0.875 8.875 C-1.14441406 9.62136719 -1.41382813 10.36773437 -1.69140625 11.13671875 C-3.7734375 16.7734375 -3.7734375 16.7734375 -6 19 C-6.33 18.34 -6.66 17.68 -7 17 C-6.2940712 15.35283279 -5.58127457 13.70814964 -4.828125 12.08203125 C-3.63160128 9.07379002 -3.09308486 5.99923875 -2.52734375 2.8203125 C-2.26630859 1.91925781 -2.26630859 1.91925781 -2 1 C-1.34 0.67 -0.68 0.34 0 0 Z " fill="#5FA13E" transform="translate(222,159)"/>
<path d="M0 0 C1.25039062 0.00966797 2.50078125 0.01933594 3.7890625 0.02929688 C5.74199219 0.06700195 5.74199219 0.06700195 7.734375 0.10546875 C9.05179688 0.11900391 10.36921875 0.13253906 11.7265625 0.14648438 C14.97957821 0.18184324 18.231771 0.23119842 21.484375 0.29296875 C21.484375 0.62296875 21.484375 0.95296875 21.484375 1.29296875 C20.56325928 1.33055298 20.56325928 1.33055298 19.62353516 1.36889648 C16.78534866 1.48642139 13.9473706 1.60842401 11.109375 1.73046875 C9.66111328 1.78944336 9.66111328 1.78944336 8.18359375 1.84960938 C1.92175188 2.12277697 -4.28659809 2.59620003 -10.515625 3.29296875 C-7.07424122 0.09159564 -4.62210226 -0.06302867 0 0 Z " fill="#CFEDBE" transform="translate(138.515625,65.70703125)"/>
<path d="M0 0 C0.268125 0.639375 0.53625 1.27875 0.8125 1.9375 C1.88667752 4.33131686 1.88667752 4.33131686 5 5 C5.66 8.3 6.32 11.6 7 15 C3.74462981 11.92059576 0.85380546 9.1195677 -1 5 C-0.6875 2.1875 -0.6875 2.1875 0 0 Z " fill="#5BA03D" transform="translate(274,356)"/>
<path d="M0 0 C8.46220196 1.10376547 16.74226247 2.85910508 25 5 C25 5.33 25 5.66 25 6 C18.80635868 6.28152915 13.88093233 5.38556756 8 3.5 C7.22527344 3.26152344 6.45054688 3.02304688 5.65234375 2.77734375 C3.76512242 2.19486803 1.88209049 1.59884697 0 1 C0 0.67 0 0.34 0 0 Z " fill="#74AB5A" transform="translate(121,210)"/>
<path d="M0 0 C0 0.99 0 1.98 0 3 C0.3062434 4.33981486 0.63451555 5.67511887 1 7 C0.21625 7.103125 -0.5675 7.20625 -1.375 7.3125 C-4.33045181 7.77595022 -4.33045181 7.77595022 -6 11 C-6.66 11 -7.32 11 -8 11 C-8.33 12.32 -8.66 13.64 -9 15 C-9.66 15 -10.32 15 -11 15 C-9.58319756 10.67953102 -7.46236215 7.99538801 -4.375 4.6875 C-3.55773437 3.80449219 -2.74046875 2.92148437 -1.8984375 2.01171875 C-0.95871094 1.01591797 -0.95871094 1.01591797 0 0 Z " fill="#6BA54F" transform="translate(287,271)"/>
<path d="M0 0 C4.12989477 4.26311718 4.61271765 7.28758534 5 13 C4.01 13.495 4.01 13.495 3 14 C-1.07877462 5.96498906 -1.07877462 5.96498906 -0.75 1.9375 C-0.5025 1.298125 -0.255 0.65875 0 0 Z " fill="#5AA23D" transform="translate(82,164)"/>
<path d="M0 0 C19.53191489 -0.38297872 19.53191489 -0.38297872 28 2 C28 2.66 28 3.32 28 4 C27.10474609 3.80083984 27.10474609 3.80083984 26.19140625 3.59765625 C17.49839611 1.82805389 8.83890388 1.39376125 0 1 C0 0.67 0 0.34 0 0 Z " fill="#ECFBE3" transform="translate(143,65)"/>
<path d="M0 0 C3.04516202 2.83332467 5.16868601 5.65500311 7.25 9.25 C8.03117188 10.58804688 8.03117188 10.58804688 8.828125 11.953125 C9.21484375 12.62859375 9.6015625 13.3040625 10 14 C9.01 14.495 9.01 14.495 8 15 C7.938125 14.38125 7.87625 13.7625 7.8125 13.125 C7.544375 12.42375 7.27625 11.7225 7 11 C6.195625 10.773125 5.39125 10.54625 4.5625 10.3125 C2 9 2 9 1.2265625 6.87890625 C0.7339071 4.59055763 0.31963055 2.31851412 0 0 Z " fill="#62A347" transform="translate(208,93)"/>
<path d="M0 0 C0 0.66 0 1.32 0 2 C-2.5546875 3.7265625 -2.5546875 3.7265625 -5.875 5.625 C-6.96554687 6.25664062 -8.05609375 6.88828125 -9.1796875 7.5390625 C-12 9 -12 9 -14 9 C-14 8.34 -14 7.68 -14 7 C-13.01 7 -12.02 7 -11 7 C-10.67 6.01 -10.34 5.02 -10 4 C-9.01 3.67 -8.02 3.34 -7 3 C-6.67 2.34 -6.34 1.68 -6 1 C-3 0 -3 0 0 0 Z " fill="#64A247" transform="translate(384,384)"/>
<path d="M0 0 C2.83419229 3.29708329 3.96554174 6.47689646 5.1875 10.625 C5.53167969 11.77226563 5.87585938 12.91953125 6.23046875 14.1015625 C7 17 7 17 7 19 C6.34 19 5.68 19 5 19 C5 17.35 5 15.7 5 14 C4.34 14 3.68 14 3 14 C2.49307308 12.4188708 1.99473557 10.83498617 1.5 9.25 C1.2215625 8.36828125 0.943125 7.4865625 0.65625 6.578125 C0 4 0 4 0 0 Z " fill="#66A54C" transform="translate(218,109)"/>
<path d="M0 0 C0.66 0.33 1.32 0.66 2 1 C1.45660208 5.56454251 0.20536179 8.9728176 -2 13 C-2.66 13 -3.32 13 -4 13 C-3.40895235 8.15340923 -2.02055843 4.39251833 0 0 Z " fill="#63A447" transform="translate(83,109)"/>
<path d="M0 0 C0.66 0 1.32 0 2 0 C0.42986223 5.96652354 -2.75029782 10.82909025 -6 16 C-6.33 15.01 -6.66 14.02 -7 13 C-5.70951192 10.97209016 -4.36821051 8.97630407 -3 7 C-1.89081798 4.6984473 -0.94979838 2.37449594 0 0 Z " fill="#60A03F" transform="translate(407,352)"/>
<path d="M0 0 C2.31 1.98 4.62 3.96 7 6 C6 8 6 8 2.9375 9.125 C1.968125 9.41375 0.99875 9.7025 0 10 C0.185625 9.278125 0.37125 8.55625 0.5625 7.8125 C1.01995307 4.87173027 0.73516357 2.85896942 0 0 Z " fill="#5AA438" transform="translate(201,86)"/>
<path d="M0 0 C0 4.71428571 0 4.71428571 -1 7 C-3.9375 8.8125 -3.9375 8.8125 -7 10 C-7.66 9.67 -8.32 9.34 -9 9 C-6 6 -3 3 0 0 Z " fill="#66A746" transform="translate(103,83)"/>
<path d="M0 0 C-1.76915475 0.98219627 -3.54038569 1.96065359 -5.3125 2.9375 C-6.29863281 3.48277344 -7.28476563 4.02804688 -8.30078125 4.58984375 C-11 6 -11 6 -14 7 C-14 6.01 -14 5.02 -14 4 C-12.42466914 3.13116294 -10.83935491 2.28040932 -9.25 1.4375 C-8.36828125 0.96183594 -7.4865625 0.48617187 -6.578125 -0.00390625 C-3.79298812 -1.07998186 -2.73019786 -1.06528748 0 0 Z " fill="#E6FADD" transform="translate(121,73)"/>
<path d="M0 0 C0.99 0.33 1.98 0.66 3 1 C1.95199219 1.83144531 1.95199219 1.83144531 0.8828125 2.6796875 C-0.02726562 3.40414062 -0.93734375 4.12859375 -1.875 4.875 C-2.77992187 5.59429687 -3.68484375 6.31359375 -4.6171875 7.0546875 C-7.00265176 8.93560474 -7.00265176 8.93560474 -9 11 C-8.42558597 7.12270528 -6.70745361 4.78480942 -4 2 C-2.68 2 -1.36 2 0 2 C0 1.34 0 0.68 0 0 Z " fill="#E5FAE0" transform="translate(104,80)"/>
<path d="M0 0 C0.33 0 0.66 0 1 0 C0.53727822 5.36757261 -0.13719579 9.30500109 -3 14 C-3.99 14.495 -3.99 14.495 -5 15 C-3.78623966 9.67812773 -2.27376292 4.96093728 0 0 Z " fill="#68A54D" transform="translate(272,291)"/>
<path d="M0 0 C2.35399191 2.29604749 4.53109618 4.70560126 6.6875 7.1875 C7.31011719 7.90292969 7.93273437 8.61835938 8.57421875 9.35546875 C9.27998047 10.16951172 9.27998047 10.16951172 10 11 C8.68 11.33 7.36 11.66 6 12 C6 11.01 6 10.02 6 9 C5.38125 8.814375 4.7625 8.62875 4.125 8.4375 C0.94397134 6.28562767 0.80548053 3.62466237 0 0 Z " fill="#DCF6D4" transform="translate(278,368)"/>
<path d="M0 0 C-0.5 1.875 -0.5 1.875 -2 4 C-6.16575502 5.703747 -10.51767658 6.28014521 -15 6 C-12.29954818 4.19969878 -9.93322119 3.06622934 -6.9375 1.875 C-6.05964844 1.52179688 -5.18179688 1.16859375 -4.27734375 0.8046875 C-2 0 -2 0 0 0 Z " fill="#DDF4CD" transform="translate(186,208)"/>
<path d="M0 0 C0.99 0.33 1.98 0.66 3 1 C2.02526874 2.66926454 1.04510211 4.33535642 0.0625 6 C-0.75541016 7.3921875 -0.75541016 7.3921875 -1.58984375 8.8125 C-2.05519531 9.534375 -2.52054687 10.25625 -3 11 C-3.33 11 -3.66 11 -4 11 C-3.67 8.36 -3.34 5.72 -3 3 C-2.01 3 -1.02 3 0 3 C0 2.01 0 1.02 0 0 Z " fill="#E1F7D6" transform="translate(88,96)"/>
<path d="M0 0 C3.9429464 1.46596725 5.01834588 3.37308275 6.75 7.125 C7.17796875 8.03507812 7.6059375 8.94515625 8.046875 9.8828125 C8.51867187 10.93082031 8.51867187 10.93082031 9 12 C8.01 12.495 8.01 12.495 7 13 C5.83072457 11.02237345 4.66464427 9.04285742 3.5 7.0625 C2.8503125 5.96035156 2.200625 4.85820312 1.53125 3.72265625 C0 1 0 1 0 0 Z " fill="#E6FCE0" transform="translate(400,280)"/>
<path d="M0 0 C1.27351308 2.54702616 0.80191925 3.4282945 0.0625 6.125 C-0.13214844 6.84945312 -0.32679687 7.57390625 -0.52734375 8.3203125 C-0.76130859 9.15175781 -0.76130859 9.15175781 -1 10 C-2.65 10 -4.3 10 -6 10 C-5.18957164 8.51969728 -4.37659652 7.04078858 -3.5625 5.5625 C-2.88380859 4.32693359 -2.88380859 4.32693359 -2.19140625 3.06640625 C-1 1 -1 1 0 0 Z " fill="#60A543" transform="translate(93,93)"/>
<path d="M0 0 C4.8274799 1.41292095 8.7162359 3.42974154 13 6 C10.60042386 6.84119973 9.35077442 7.11193544 6.89453125 6.328125 C6.20746094 5.97234375 5.52039063 5.6165625 4.8125 5.25 C4.11769531 4.90453125 3.42289063 4.5590625 2.70703125 4.203125 C1 3 1 3 0 0 Z " fill="#63A144" transform="translate(179,72)"/>
<path d="M0 0 C5.23175837 -0.38281159 8.37802694 0.78145293 13 3 C12.67 3.66 12.34 4.32 12 5 C7.61110675 4.33501617 4.0188515 2.81242323 0 1 C0 0.67 0 0.34 0 0 Z " fill="#67A54D" transform="translate(307,392)"/>
<path d="M0 0 C1.32 0 2.64 0 4 0 C4.061875 0.61875 4.12375 1.2375 4.1875 1.875 C4.81552157 4.2590293 4.81552157 4.2590293 7.4375 5.125 C8.283125 5.41375 9.12875 5.7025 10 6 C10.66 6.66 11.32 7.32 12 8 C8.43827265 8 7.63465243 7.25329283 4.875 5.125 C4.17117188 4.59132813 3.46734375 4.05765625 2.7421875 3.5078125 C1 2 1 2 0 0 Z " fill="#67A348" transform="translate(287,378)"/>
<path d="M0 0 C0.66 0.33 1.32 0.66 2 1 C1.51171875 7.0546875 1.51171875 7.0546875 1 9 C0.01 9.66 -0.98 10.32 -2 11 C-2.28571429 3.57142857 -2.28571429 3.57142857 0 0 Z " fill="#44AA1E" transform="translate(269,311)"/>
<path d="M0 0 C0.66 0.33 1.32 0.66 2 1 C-0.64875428 4.7278764 -2.55370235 6.74591605 -7 8 C-7.99 8 -8.98 8 -10 8 C-6.80009492 5.25722422 -3.99500618 3.3697164 0 2 C0 1.34 0 0.68 0 0 Z " fill="#E2F6DC" transform="translate(384,384)"/>
<path d="M0 0 C0.56203125 0.29648438 1.1240625 0.59296875 1.703125 0.8984375 C4.01967305 2.00943503 6.30709092 2.83464706 8.75 3.625 C9.54921875 3.88539063 10.3484375 4.14578125 11.171875 4.4140625 C11.77515625 4.60742188 12.3784375 4.80078125 13 5 C13 5.33 13 5.66 13 6 C5.10968921 6.30347349 5.10968921 6.30347349 2 4 C0.75 1.875 0.75 1.875 0 0 Z " fill="#DEF5D6" transform="translate(117,208)"/>
<path d="M0 0 C2.4375 0.1875 2.4375 0.1875 5 1 C6.3125 3.0625 6.3125 3.0625 7 5 C3.31245243 4.50168276 1.39509338 3.89932357 -1 1 C-0.67 0.67 -0.34 0.34 0 0 Z " fill="#5DA442" transform="translate(112,203)"/>
<path d="M0 0 C0.66 0.66 1.32 1.32 2 2 C-0.31 4.97 -2.62 7.94 -5 11 C-5.33 9.68 -5.66 8.36 -6 7 C-5.01 7 -4.02 7 -3 7 C-2.87625 6.401875 -2.7525 5.80375 -2.625 5.1875 C-2 3 -2 3 0 0 Z " fill="#60A141" transform="translate(213,179)"/>
<path d="M0 0 C1.32 0.99 2.64 1.98 4 3 C2.35 4.65 0.7 6.3 -1 8 C-1.04241723 5.66705225 -1.04092937 3.33297433 -1 1 C-0.67 0.67 -0.34 0.34 0 0 Z " fill="#5DA63C" transform="translate(395,368)"/>
<path d="M0 0 C-5.14285714 4.42857143 -5.14285714 4.42857143 -9 5 C-8.625 3.0625 -8.625 3.0625 -8 1 C-5.29120665 -0.35439668 -2.99066732 -0.06501451 0 0 Z " fill="#5FA242" transform="translate(193,203)"/>
<path d="M0 0 C0.99 0.33 1.98 0.66 3 1 C2.0479279 2.00596297 1.08812654 3.00461563 0.125 4 C-0.40867188 4.556875 -0.94234375 5.11375 -1.4921875 5.6875 C-3 7 -3 7 -5 7 C-5 5.68 -5 4.36 -5 3 C-3.35 2.67 -1.7 2.34 0 2 C0 1.34 0 0.68 0 0 Z " fill="#66A44A" transform="translate(203,192)"/>
<path d="M0 0 C5.75 0.875 5.75 0.875 8 2 C6.35 3.32 4.7 4.64 3 6 C1.5 4.6875 1.5 4.6875 0 3 C0 2.01 0 1.02 0 0 Z " fill="#5EA63E" transform="translate(384,377)"/>
<path d="M0 0 C2.95183101 2.95183101 3.08663988 5.95511947 4 10 C2.68 9.34 1.36 8.68 0 8 C0 5.36 0 2.72 0 0 Z " fill="#64A542" transform="translate(408,296)"/>
<path d="M0 0 C0.33 0.66 0.66 1.32 1 2 C1.66 2 2.32 2 3 2 C3 2.66 3 3.32 3 4 C3.66 4 4.32 4 5 4 C5 5.65 5 7.3 5 9 C0.125 4.375 0.125 4.375 -1 1 C-0.67 0.67 -0.34 0.34 0 0 Z " fill="#5EA13B" transform="translate(91,183)"/>
<path d="M0 0 C1.07349791 4.29399165 0.79682816 5.19495213 -1 9 C-1.66 9 -2.32 9 -3 9 C-3 9.66 -3 10.32 -3 11 C-3.66 10.67 -4.32 10.34 -5 10 C-3.35 6.7 -1.7 3.4 0 0 Z " fill="#D9F6D3" transform="translate(219,171)"/>
<path d="M0 0 C2.97 0.495 2.97 0.495 6 1 C6 1.66 6 2.32 6 3 C7.65 3 9.3 3 11 3 C9.4375 4.25 9.4375 4.25 7 5 C4.42998985 3.93237266 2.3469597 2.53455057 0 1 C0 0.67 0 0.34 0 0 Z " fill="#68A64C" transform="translate(298,387)"/>
<path d="M0 0 C2.97 0.99 5.94 1.98 9 3 C9 3.33 9 3.66 9 4 C3.375 4.25 3.375 4.25 0 2 C0 1.34 0 0.68 0 0 Z " fill="#62A145" transform="translate(360,253)"/>
<path d="M0 0 C3.0831351 1.19899698 6.06279492 2.47700477 9 4 C8.67 4.99 8.34 5.98 8 7 C6.66382648 6.02471263 5.3311249 5.04466681 4 4.0625 C3.2575 3.51722656 2.515 2.97195312 1.75 2.41015625 C1.1725 1.94480469 0.595 1.47945312 0 1 C0 0.67 0 0.34 0 0 Z " fill="#67A84C" transform="translate(101,197)"/>
<path d="M0 0 C0 0.66 0 1.32 0 2 C-0.99 2.495 -0.99 2.495 -2 3 C-2.33 3.99 -2.66 4.98 -3 6 C-4.32 6 -5.64 6 -7 6 C-5.52522876 2.59668175 -4.14385429 0 0 0 Z " fill="#619F46" transform="translate(112,78)"/>
<path d="M0 0 C1.65 1.65 3.3 3.3 5 5 C4.34 5.66 3.68 6.32 3 7 C1.35 5.02 -0.3 3.04 -2 1 C-1.34 0.67 -0.68 0.34 0 0 Z " fill="#64A64A" transform="translate(283,371)"/>
<path d="M0 0 C2 1.5625 2 1.5625 4 4 C4.25 7.75 4.25 7.75 4 11 C1.54176828 7.31265242 0.98757384 4.30300029 0 0 Z " fill="#6AA453" transform="translate(266,341)"/>
<path d="M0 0 C0 0.99 0 1.98 0 3 C0.3062434 4.33981486 0.63451555 5.67511887 1 7 C-0.65 7 -2.3 7 -4 7 C-3.43628586 3.73045798 -2.50037734 2.17424117 0 0 Z " fill="#5EA341" transform="translate(287,271)"/>
<path d="M0 0 C0.66 0 1.32 0 2 0 C3.60725635 3.21451269 3.05748185 6.43612536 3 10 C1.11608215 6.73454239 0.50712033 3.71888239 0 0 Z " fill="#E5F8D9" transform="translate(222,116)"/>
<path d="M0 0 C0.66 0.33 1.32 0.66 2 1 C0.02 1.99 0.02 1.99 -2 3 C-2 3.66 -2 4.32 -2 5 C-3.65 5 -5.3 5 -7 5 C-4.88437775 2.67281553 -2.94982021 1.14186589 0 0 Z " fill="#65A348" transform="translate(119,73)"/>
<path d="M0 0 C3.3 0 6.6 0 10 0 C10 0.99 10 1.98 10 3 C6.7 2.34 3.4 1.68 0 1 C0 0.67 0 0.34 0 0 Z " fill="#E4FAD9" transform="translate(354,251)"/>
</svg>
